<svg width="80" height="80" viewBox="0 0 80 80" fill="none" xmlns="http://www.w3.org/2000/svg">
<path d="M41.0748 42.0229V3C42.687 4.28244 46.2339 7.06718 47.5237 7.94656C49.1359 9.0458 53.4352 15.6412 53.9726 20.0382C54.51 24.4351 46.9863 42.0229 45.9115 48.0687C44.8367 54.1145 49.1359 64.5573 49.6733 67.3053C50.1032 69.5038 43.4036 73.3511 40 75V67.3053L41.0748 42.0229Z" fill="#6777EF" stroke="#6777EF"/>
<path d="M37.8845 42.0229L40 3C38.3929 4.28244 32.7416 7.06718 31.4559 7.94656C29.8488 9.0458 25.5631 15.6412 25.0273 20.0382C24.4916 24.4351 31.9916 42.0229 33.0631 48.0687C34.1345 54.1145 29.8488 64.5573 29.3131 67.3053C28.8845 69.5038 35.5631 73.3511 38.9559 75V67.3053L37.8845 42.0229Z" fill="#6777EF" stroke="#6777EF"/>
<path d="M4.14174 31.7002C2.83907 44.0126 10.836 47.4572 14.9973 47.6404C13.3689 42.1438 18.254 39.3955 20.4252 39.3955C22.5963 39.3955 24.7674 42.6934 25.8529 43.7927C26.9385 44.892 27.4813 50.9383 27.4813 53.1369C27.4813 55.3356 25.3102 56.9846 23.6818 58.6335C22.3792 59.9527 19.5205 59.1832 18.254 58.6335C18.0731 59.1832 18.4712 61.052 21.5107 64.1301C24.5503 67.2082 29.2905 61.3818 31.2807 58.0839C31.8235 53.1369 32.5834 42.1438 31.2807 37.7465C29.6524 32.2499 20.4252 24.5547 16.6257 23.4554C12.8263 22.356 9.0268 23.4554 7.39846 24.5547C5.77013 25.654 4.68452 28.4023 4.14174 31.7002Z" fill="#6777EF" stroke="#6777EF"/>
<path d="M75.8532 31.7002C77.2024 44.0126 68.9198 47.4572 64.6099 47.6404C66.2965 42.1438 61.2369 39.3955 58.9882 39.3955C56.7396 39.3955 54.4909 42.6934 53.3666 43.7927C52.2423 44.892 51.6801 50.9383 51.6801 53.1369C51.6801 55.3356 53.9288 56.9846 55.6153 58.6335C56.9644 59.9527 59.9252 59.1832 61.2369 58.6335C61.4243 59.1832 61.012 61.052 57.8639 64.1301C54.7158 67.2082 49.8062 61.3818 47.745 58.0839C47.1828 53.1369 46.3958 42.1438 47.745 37.7465C49.4315 32.2499 58.9882 24.5547 62.9234 23.4554C66.8585 22.356 70.7937 23.4554 72.4802 24.5547C74.1667 25.654 75.291 28.4023 75.8532 31.7002Z" fill="#6777EF" stroke="#6777EF"/>
<rect x="26" y="49" width="28" height="1" rx="0.5" fill="white"/>
<rect x="27" y="51" width="26" height="1" rx="0.5" fill="white"/>
<rect x="27" y="53" width="26" height="2" rx="1" fill="white"/>
</svg>
